<?xml version="1.0" encoding="UTF-8" standalone="no"?> <svg id="Outline_ok" data-name="Outline ok" xmlns="http://www.w3.org/2000/svg" viewBox="0 0 64 64"><path d="M32,56a23.9,23.9,0,0,1-18.138-8.308,1,1,0,0,1,1.516-1.3A21.991,21.991,0,0,0,52.651,24.416a1,1,0,1,1,1.877-.692A24,24,0,0,1,32,56Z" style="fill:#231f20"/><path d="M10.41,40.931a1,1,0,0,1-.938-.655A24,24,0,0,1,31.625,8.01a5.275,5.275,0,0,1,.816,0,23.84,23.84,0,0,1,15.12,5.728,21.6,21.6,0,0,1,2.584,2.574,1,1,0,1,1-1.53,1.289,19.592,19.592,0,0,0-2.349-2.339,21.9,21.9,0,0,0-13.92-5.255C32.185,10,32.089,10,32,10s-.187,0-.279.006A22,22,0,0,0,11.349,39.584a1,1,0,0,1-.939,1.347Z" style="fill:#231f20"/><path d="M32,21a23.958,23.958,0,0,1-15.561-5.74,1,1,0,0,1,1.3-1.52A21.95,21.95,0,0,0,32,19a21.95,21.95,0,0,0,14.26-5.26,1,1,0,0,1,1.3,1.52A23.958,23.958,0,0,1,32,21Z" style="fill:#231f20"/><path d="M46.91,50.5a1,1,0,0,1-.65-.24,21.96,21.96,0,0,0-28.52,0,1,1,0,0,1-1.3-1.52,23.963,23.963,0,0,1,31.122,0,1,1,0,0,1-.651,1.76Z" style="fill:#231f20"/><path d="M32,56c-5.371,0-10.111-5.9-12.077-15.03a1,1,0,1,1,1.955-.421C23.61,48.6,27.678,54,32,54c5.715,0,10.529-8.933,10.961-20.337a1,1,0,1,1,2,.075C44.479,46.429,38.908,56,32,56Z" style="fill:#231f20"/><path d="M20.041,31.3H20a1,1,0,0,1-.963-1.036,37.976,37.976,0,0,1,2.532-12.7c2.363-5.845,6.011-9.327,10.01-9.554a5.59,5.59,0,0,1,.858,0c3.975.225,7.623,3.707,9.986,9.552a33.288,33.288,0,0,1,1.65,5.466,1,1,0,1,1-1.955.419,31.169,31.169,0,0,0-1.549-5.136c-2.06-5.1-5.075-8.125-8.269-8.306C32.187,10,32.092,10,32,10s-.187,0-.279.006c-3.219.183-6.234,3.21-8.294,8.308a35.981,35.981,0,0,0-2.388,12.022A1,1,0,0,1,20.041,31.3Z" style="fill:#231f20"/><path d="M32,56a1,1,0,0,1-1-1V37.66a1,1,0,0,1,2,0V55A1,1,0,0,1,32,56Z" style="fill:#231f20"/><path d="M32,27.34a1,1,0,0,1-1-1V9a1,1,0,0,1,2,0V26.34A1,1,0,0,1,32,27.34Z" style="fill:#231f20"/><path d="M18.34,33H9a1,1,0,0,1,0-2h9.34a1,1,0,1,1,0,2Z" style="fill:#231f20"/><path d="M55,33H45.66a1,1,0,0,1,0-2H55a1,1,0,0,1,0,2Z" style="fill:#231f20"/><path d="M62,21a1,1,0,0,1-1-1V11H51a1,1,0,0,1,0-2H62a1,1,0,0,1,1,1V20A1,1,0,0,1,62,21Z" style="fill:#231f20"/><path d="M2,55a1,1,0,0,1-.707-1.707l26-26a1,1,0,0,1,1.414,0L36,34.586,61.293,9.293a1,1,0,0,1,1.414,1.414l-26,26a1,1,0,0,1-1.414,0L28,29.414,2.707,54.707A1,1,0,0,1,2,55Z" style="fill:#231f20"/></svg>