<?xml version="1.0" encoding="UTF-8" standalone="no"?> <svg id="Layer_1" data-name="Layer 1" xmlns="http://www.w3.org/2000/svg" viewBox="0 0 128 128"><defs><style>.cls-1{fill:#2d3e50;}.cls-2{fill:#1d75b8;}</style></defs><title>a</title><path class="cls-1" d="M98.63785,51.67065q-.35252-.99073-.75976-1.9551A36.82135,36.82135,0,0,0,64.2644,27.23686c-.08712-.002-.17626-.002-.26339-.002s-.17626,0-.26338.002A36.822,36.822,0,0,0,30.12191,49.71555q-.40724.96337-.75976,1.9551a36.79235,36.79235,0,0,0,0,24.65869q.35252.99073.76179,1.95511a36.81814,36.81814,0,0,0,33.61369,22.47868c.08712.002.17626.002.26338.002s.17628,0,.26339-.002A36.82247,36.82247,0,0,0,97.87809,78.28446q.40724-.96339.75976-1.95511a36.79235,36.79235,0,0,0,0-24.65869ZM96.51053,63.999a32.39916,32.39916,0,0,1-1.58232,10.03083h-11.601a68.57258,68.57258,0,0,0,0-20.05963h11.601A32.37659,32.37659,0,0,1,96.51053,63.999Zm-65.02106,0a32.31771,32.31771,0,0,1,1.58435-10.0288h11.599a68.57258,68.57258,0,0,0,0,20.05963h-11.599A32.34023,32.34023,0,0,1,31.48947,63.999Zm16.70048,0a61.9135,61.9135,0,0,1,.80434-10.0288H61.87285V74.02982H48.99429A61.92024,61.92024,0,0,1,48.19,63.999ZM66.12749,31.79722l.00084.00021c5.21093,1.51546,9.70058,8.487,12.01431,17.91812H66.12749Zm-4.25464.00048V49.71555H49.85736C52.171,40.28494,56.66229,33.31364,61.87285,31.7977Zm0,46.48676V96.20231c-5.21056-1.516-9.70188-8.48724-12.01548-17.91785Zm4.25548,17.91812-.00056.00012-.00028-17.91825H78.14264C75.82891,87.71558,71.33926,94.68711,66.12833,96.20258Zm-.00084-22.17276V53.97019H79.00572a62.93738,62.93738,0,0,1,0,20.05963ZM93.202,49.71555H82.531a46.60425,46.60425,0,0,0-3.95884-11.18566,30.10679,30.10679,0,0,0-3.19707-4.986A32.68493,32.68493,0,0,1,93.202,49.71555ZM52.62288,33.54386a30.10283,30.10283,0,0,0-3.195,4.986A46.69179,46.69179,0,0,0,45.469,49.71555H34.8A32.68516,32.68516,0,0,1,52.62288,33.54386ZM34.8,78.28446H45.469a46.73955,46.73955,0,0,0,3.95884,11.18768,30.07615,30.07615,0,0,0,3.193,4.984A32.688,32.688,0,0,1,34.8,78.28446ZM75.37712,94.45614a30.0809,30.0809,0,0,0,3.195-4.984A46.65186,46.65186,0,0,0,82.531,78.28446H93.202A32.69591,32.69591,0,0,1,75.37712,94.45614Z"/><path class="cls-2" d="M119.80464,34.52661A63.12586,63.12586,0,0,0,96.69859,10.52282,62.145,62.145,0,0,0,44.00651,5.35569,61.66259,61.66259,0,0,0,6.84281,42.18457l4.81133,1.83036a55.94186,55.94186,0,0,1,20.026-25.20259,54.93244,54.93244,0,0,1,60.77282-1.37266,54.53907,54.53907,0,0,1,19.68023,21.89375l-5.81062,3.6408L124.361,49.82995l1.35335-19.00624Z"/><path class="cls-2" d="M8.19536,93.47339a63.12586,63.12586,0,0,0,23.10605,24.00379,62.145,62.145,0,0,0,52.69208,5.16713,61.66259,61.66259,0,0,0,37.1637-36.82888l-4.81133-1.83036a55.94186,55.94186,0,0,1-20.026,25.20259,54.93244,54.93244,0,0,1-60.77282,1.37266A54.53907,54.53907,0,0,1,15.86683,88.66657l5.81062-3.6408L3.639,78.17005,2.28568,97.17629Z"/></svg>